<svg width="28" height="28" viewBox="0 0 28 28" fill="none" xmlns="http://www.w3.org/2000/svg">
<path fill-rule="evenodd" clip-rule="evenodd" d="M10.1785 1.27173L25.5333 16.6266L16.0842 26.0757L0.729374 10.7209L10.1785 1.27173Z" fill="#5697FA"/>
<path fill-rule="evenodd" clip-rule="evenodd" d="M4.60462 9.20789L8.66554 5.14697C8.97674 5.65632 9.53792 5.99629 10.1785 5.99629C10.8191 5.99629 11.3803 5.65632 11.6915 5.14697L21.6581 15.1136C21.1487 15.4248 20.8088 15.986 20.8088 16.6266C20.8088 17.2671 21.1487 17.8283 21.6581 18.1395L17.5972 22.2005C17.286 21.6911 16.7248 21.3511 16.0842 21.3511C15.4436 21.3511 14.8824 21.6911 14.5713 22.2005L4.60462 12.2338C5.11397 11.9226 5.45394 11.3614 5.45394 10.7209C5.45394 10.0803 5.11397 9.51909 4.60462 9.20789Z" fill="white"/>
<path d="M13.1314 17.8077C15.4145 17.8077 17.2654 15.9569 17.2654 13.6737C17.2654 11.3906 15.4145 9.53973 13.1314 9.53973C10.8482 9.53973 8.99736 11.3906 8.99736 13.6737C8.99736 15.9569 10.8482 17.8077 13.1314 17.8077Z" fill="#3483FA"/>
<path fill-rule="evenodd" clip-rule="evenodd" d="M11.2521 15.1395L10.9877 15.4039C10.771 15.6206 10.8989 16.0215 11.3301 16.0172C11.3472 16.0167 11.3635 16.0098 11.3757 15.9977L11.7332 15.6401C12.4268 16.1927 13.2048 16.2144 13.7271 15.6921C14.2494 15.1698 14.2451 14.5348 13.6816 13.5964L13.4042 13.1196C13.1571 12.6341 13.2048 12.4478 13.3803 12.2722C13.5559 12.0967 13.8766 12.088 14.1757 12.3329C14.212 12.3629 14.2467 12.3948 14.2797 12.4283C14.3668 12.5187 14.4418 12.6199 14.503 12.7295C14.6246 12.9479 14.7178 13.181 14.7804 13.423C14.7978 13.5045 14.8376 13.5796 14.8952 13.6397C15.0638 13.8049 15.3335 13.8049 15.5021 13.6397C15.6172 13.5272 15.6561 13.3578 15.6018 13.2063C15.5223 12.8457 15.3647 12.5069 15.1401 12.2137L15.4739 11.88C15.4859 11.8678 15.4929 11.8515 15.4934 11.8344C15.4934 11.401 15.086 11.284 14.8801 11.492L14.6633 11.7087C13.9872 11.1561 13.2221 11.1323 12.7128 11.6524C12.2035 12.1725 12.1884 12.788 12.7432 13.7351L13.0293 14.2032C13.2872 14.6952 13.246 14.8946 13.0574 15.0701C12.8407 15.2868 12.5503 15.263 12.2339 15.0094C12.2339 15.0094 12.1927 14.9726 12.1342 14.9141C12.0423 14.823 11.9582 14.7244 11.8828 14.6193C11.6898 14.3124 11.5608 13.9696 11.5035 13.6116C11.499 13.4393 11.3929 13.2861 11.2332 13.2213C11.0736 13.1565 10.8907 13.1924 10.7674 13.3128C10.6441 13.4332 10.6039 13.6151 10.6648 13.7763C10.7428 14.2728 10.9448 14.7417 11.2521 15.1395Z" fill="white"/>
<path fill-rule="evenodd" clip-rule="evenodd" d="M20.3125 6.50003L19.0094 5.284C17.3939 3.77645 14.8173 3.82127 13.2524 5.38612L10.1785 8.46005C11.4832 9.76471 14.3125 9.05062 14.3125 9.05062L16.0842 7.27891L24.2625 15.5H27.3125V6.50003H20.3125Z" fill="#0864EE"/>
<path d="M6.71413 12.1264C7.0605 11.78 7.51406 11.6067 7.96791 11.6067C8.38958 11.6067 8.81095 11.7564 9.14698 12.0558C9.76797 12.7524 9.74523 13.8201 9.07641 14.4887L6.85941 16.706C6.19088 17.3742 5.12313 17.3987 4.42567 16.7754C3.80557 16.0791 3.8286 15.0119 4.49713 14.3437L6.71413 12.1264ZM9.07641 14.4887C9.42278 14.1423 9.87663 13.969 10.3305 13.969C10.7519 13.969 11.1732 14.1184 11.509 14.4181C12.1303 15.1144 12.1075 16.1824 11.4387 16.851L9.22169 19.0683C8.55346 19.7362 7.48659 19.761 6.78884 19.1385C6.16785 18.4425 6.19059 17.3745 6.85941 16.706L9.07641 14.4887ZM11.4387 16.851C11.7851 16.5046 12.2386 16.3313 12.6925 16.3313C13.1144 16.3313 13.5364 16.4813 13.8724 16.7816C14.4925 17.4778 14.4695 18.5447 13.801 19.2132L11.584 21.4305C10.9157 22.0985 9.84888 22.1233 9.15112 21.5008C8.53013 20.8048 8.55287 19.7368 9.22169 19.0683L11.4387 16.851ZM13.801 19.2132C14.1473 18.8669 14.6012 18.6935 15.0548 18.6935C15.4767 18.6935 15.8987 18.8435 16.2347 19.1438C16.8548 19.8401 16.8315 20.907 16.1633 21.5755L13.946 23.7928C13.2783 24.4608 12.2112 24.4856 11.5137 23.8634C10.8924 23.1671 10.9152 22.0991 11.584 21.4305L13.801 19.2132Z" fill="#0864EE"/>
</svg>
