<svg width="12" height="24" viewBox="0 0 12 24" fill="none" xmlns="http://www.w3.org/2000/svg">
<path d="M6.89844 0.859375V4.43359H5.14062V0.859375H6.89844ZM6.6875 19.9961V23.125H4.94141V19.9961H6.6875ZM9.03125 16.293C9.03125 15.8242 8.92578 15.4023 8.71484 15.0273C8.50391 14.6523 8.15625 14.3086 7.67188 13.9961C7.1875 13.6836 6.53906 13.3945 5.72656 13.1289C4.74219 12.8242 3.89062 12.4531 3.17188 12.0156C2.46094 11.5781 1.91016 11.0352 1.51953 10.3867C1.13672 9.73828 0.945312 8.95312 0.945312 8.03125C0.945312 7.07031 1.15234 6.24219 1.56641 5.54688C1.98047 4.85156 2.56641 4.31641 3.32422 3.94141C4.08203 3.56641 4.97266 3.37891 5.99609 3.37891C6.79297 3.37891 7.50391 3.5 8.12891 3.74219C8.75391 3.97656 9.28125 4.32812 9.71094 4.79688C10.1484 5.26562 10.4805 5.83984 10.707 6.51953C10.9414 7.19922 11.0586 7.98438 11.0586 8.875H8.90234C8.90234 8.35156 8.83984 7.87109 8.71484 7.43359C8.58984 6.99609 8.40234 6.61719 8.15234 6.29688C7.90234 5.96875 7.59766 5.71875 7.23828 5.54688C6.87891 5.36719 6.46484 5.27734 5.99609 5.27734C5.33984 5.27734 4.79688 5.39063 4.36719 5.61719C3.94531 5.84375 3.63281 6.16406 3.42969 6.57812C3.22656 6.98438 3.125 7.45703 3.125 7.99609C3.125 8.49609 3.22656 8.93359 3.42969 9.30859C3.63281 9.68359 3.97656 10.0234 4.46094 10.3281C4.95312 10.625 5.62891 10.918 6.48828 11.207C7.49609 11.5273 8.35156 11.9062 9.05469 12.3438C9.75781 12.7734 10.293 13.3047 10.6602 13.9375C11.0273 14.5625 11.2109 15.3398 11.2109 16.2695C11.2109 17.2773 10.9844 18.1289 10.5312 18.8242C10.0781 19.5117 9.44141 20.0352 8.62109 20.3945C7.80078 20.7539 6.83984 20.9336 5.73828 20.9336C5.07422 20.9336 4.41797 20.8438 3.76953 20.6641C3.12109 20.4844 2.53516 20.1914 2.01172 19.7852C1.48828 19.3711 1.07031 18.8281 0.757812 18.1562C0.445312 17.4766 0.289062 16.6445 0.289062 15.6602H2.46875C2.46875 16.3242 2.5625 16.875 2.75 17.3125C2.94531 17.7422 3.20312 18.0859 3.52344 18.3438C3.84375 18.5938 4.19531 18.7734 4.57812 18.8828C4.96875 18.9844 5.35547 19.0352 5.73828 19.0352C6.44141 19.0352 7.03516 18.9258 7.51953 18.707C8.01172 18.4805 8.38672 18.1602 8.64453 17.7461C8.90234 17.332 9.03125 16.8477 9.03125 16.293Z" fill="#333333"/>
</svg>
